<svg width="512" height="512" viewBox="0 0 512 512" fill="none" xmlns="http://www.w3.org/2000/svg">
  <!-- Background -->
  <rect width="512" height="512" rx="64" fill="#3b82f6"/>
  
  <!-- Left weight -->
  <rect x="80" y="180" width="80" height="152" rx="8" fill="white"/>
  <rect x="70" y="200" width="100" height="20" rx="10" fill="white"/>
  <rect x="70" y="292" width="100" height="20" rx="10" fill="white"/>
  
  <!-- Right weight -->
  <rect x="352" y="180" width="80" height="152" rx="8" fill="white"/>
  <rect x="342" y="200" width="100" height="20" rx="10" fill="white"/>
  <rect x="342" y="292" width="100" height="20" rx="10" fill="white"/>
  
  <!-- Handle -->
  <rect x="170" y="240" width="172" height="32" rx="16" fill="white"/>
  
  <!-- Handle grip lines -->
  <line x1="200" y1="245" x2="200" y2="267" stroke="#3b82f6" stroke-width="2" stroke-linecap="round"/>
  <line x1="220" y1="245" x2="220" y2="267" stroke="#3b82f6" stroke-width="2" stroke-linecap="round"/>
  <line x1="240" y1="245" x2="240" y2="267" stroke="#3b82f6" stroke-width="2" stroke-linecap="round"/>
  <line x1="272" y1="245" x2="272" y2="267" stroke="#3b82f6" stroke-width="2" stroke-linecap="round"/>
  <line x1="292" y1="245" x2="292" y2="267" stroke="#3b82f6" stroke-width="2" stroke-linecap="round"/>
  <line x1="312" y1="245" x2="312" y2="267" stroke="#3b82f6" stroke-width="2" stroke-linecap="round"/>
</svg>